<svg id="Layer_1" data-name="Layer 1" xmlns="http://www.w3.org/2000/svg" viewBox="0 0 221.94 71.77"><title>Vinamilk logo - Brandlogos.net</title><path d="M147.47,291.65h5.73a.22.22,0,0,0,.23-.23v-2.76a.22.22,0,0,0-.23-.23h-2.62a.22.22,0,0,1-.23-.23v-3.11a.22.22,0,0,1,.23-.23H153a.22.22,0,0,0,.23-.23v-2.74a.22.22,0,0,0-.23-.23h-2.42a.22.22,0,0,1-.23-.23V279.2c0-.3.16-.46.64-.46a4.15,4.15,0,0,1,2,.51c.25.14.39.09.39-.16v-3.32a.22.22,0,0,0-.23-.23H147a.26.26,0,0,0-.28.35,13.77,13.77,0,0,1,.28,3.5v11.81a.41.41,0,0,0,.46.46h0Zm9.62.23c2.58,0,4.07-2,4.07-4.77a6.27,6.27,0,0,0-1.84-4.4l-.28-.32a3.93,3.93,0,0,1-1.36-2.49c0-.55.28-1.13.92-1.13s.92.3,1.38,1c.32.48.39.58.58.58s.28-.16.28-.42v-2.74a1.6,1.6,0,0,0-.37-1.13,3,3,0,0,0-2.16-.74c-2.58,0-4,2.05-4,4.81a6.51,6.51,0,0,0,1.91,4.47l.14.16c.76.87,1.4,1.59,1.4,2.46,0,.53-.25,1.2-1,1.2s-1.15-.53-1.63-1.31c-.28-.48-.32-.62-.53-.62s-.3.23-.3.46V290a1.5,1.5,0,0,0,.37,1.1,3.2,3.2,0,0,0,2.42.76h0Zm7.3-.23h2.42a.41.41,0,0,0,.46-.46V279.05c0-.16,0-.3.3-.3a3.89,3.89,0,0,1,1.54.6c.25.12.39,0,.39-.25v-3.34a.22.22,0,0,0-.23-.23h-7.34a.22.22,0,0,0-.23.23v3.34c0,.25.14.37.39.25a3.87,3.87,0,0,1,1.54-.6c.28,0,.3.14.3.3v12.14a.41.41,0,0,0,.46.46Zm176.86,0a.41.41,0,0,0,.46-.46V276a.41.41,0,0,0-.46-.46h-2c-.28,0-.37.12-.55.51a11.79,11.79,0,0,1-1.79,2.85,1.19,1.19,0,0,0-.32,1v3.25c0,.25.09.39.23.39s.39-.3,1-1.27l.48-.71c.09-.14.14-.16.19-.16s.09.12.09.28v9.55a.41.41,0,0,0,.46.46h2.14Zm5.38-16.35c-2.74,0-4,2.12-4,5.6,0,3.15,1,5.16,3,5.16a2.16,2.16,0,0,0,1.68-.76c.14-.16.28-.19.28.19,0,2.07-.67,3.27-1.77,3.27-.71,0-1.06-.46-1.56-1.24-.19-.28-.32-.44-.51-.44s-.3.21-.3.51v2.56a1.34,1.34,0,0,0,.51,1.2,3.57,3.57,0,0,0,2.09.55c3.24,0,4.78-2.92,4.78-9,0-5.16-1.31-7.57-4.23-7.57h0Zm-.71,5.43c0-2.37.32-2.9.76-2.9s.78.55.78,2.9-.32,2.9-.78,2.9S345.92,283.11,345.92,280.73Zm6.54,10.92h2.35c.41,0,.53-.12.53-.53a26.86,26.86,0,0,1,3-12.16,2.3,2.3,0,0,0,.28-1.15V276a.41.41,0,0,0-.46-.46h-6.49a.41.41,0,0,0-.46.46v2.44a.41.41,0,0,0,.46.46h3.06c.48,0,.41.23.23.58a25.57,25.57,0,0,0-3.08,11.6C351.87,291.53,352,291.65,352.47,291.65Zm10.46.23c2.74,0,4-2.12,4-5.6,0-3.15-1-5.16-3-5.16a2.16,2.16,0,0,0-1.68.76c-.14.16-.28.19-.28-.19,0-2.07.67-3.27,1.77-3.27.71,0,1.06.46,1.56,1.24.19.28.32.44.51.44s.3-.21.3-.51v-2.56a1.34,1.34,0,0,0-.51-1.2,3.57,3.57,0,0,0-2.09-.55c-3.24,0-4.78,2.92-4.78,9,0,5.16,1.31,7.57,4.23,7.57h0Zm-.83-5.43c0-2.35.32-2.9.78-2.9s.76.53.76,2.9-.32,2.9-.76,2.9S362.1,288.8,362.1,286.45ZM191.66,233a11.35,11.35,0,0,1-8.36,0,1.23,1.23,0,0,0-1.86,1.2V268a1.33,1.33,0,0,0,1.33,1.34h9.42a1.33,1.33,0,0,0,1.33-1.33h0V234.24a1.23,1.23,0,0,0-1.87-1.2Zm-4.23-12.91c-4,0-6.58,2.14-6.47,5.68.11,3.37,2.57,5.68,6.53,5.68s6.47-2.3,6.47-5.68-2.57-5.68-6.53-5.68Zm129,12.91a11.35,11.35,0,0,1-8.36,0,1.23,1.23,0,0,0-1.86,1.2V268a1.33,1.33,0,0,0,1.33,1.34H317A1.33,1.33,0,0,0,318.3,268h0V234.24a1.23,1.23,0,0,0-1.87-1.2h0Zm-4.23-12.91c-4,0-6.58,2.14-6.47,5.68.11,3.37,2.57,5.68,6.53,5.68s6.47-2.3,6.47-5.68S316.16,220.12,312.21,220.12Zm19.95.72H321.69a1.3,1.3,0,0,0-1.3,1.64,46.28,46.28,0,0,1,1,10.89V268a1.33,1.33,0,0,0,1.33,1.34h9.42a1.33,1.33,0,0,0,1.33-1.33h0V222.18a1.33,1.33,0,0,0-1.33-1.34h0Zm-153.28,0h-13a1.16,1.16,0,0,0-1.15,1.57,18.12,18.12,0,0,1,.63,7.38l-2,26.59a.53.53,0,1,1-1.07,0l-2-26.59a18.12,18.12,0,0,1,.63-7.38,1.16,1.16,0,0,0-1.15-1.57H146.38a1.3,1.3,0,0,0-1.22,1.86,32.48,32.48,0,0,1,2.09,7.94l5.53,37a2,2,0,0,0,2,1.71h15.71a2,2,0,0,0,2-1.71l5.55-37a32.77,32.77,0,0,1,2.1-7.94,1.3,1.3,0,0,0-1.22-1.86Zm188,46.86L356.4,248.13a2.78,2.78,0,0,1-.37-1.29c0-1.13.79-2.11,2.87-2.11a13,13,0,0,1,3,.34,1.06,1.06,0,0,0,1.34-1.09V233.68c0-1.23-1.2-1.46-2.59-1.46-7.53,0-9.76,5.4-10.24,11.06-.14,1.71-.57,2.44-1.32,2.44-.24,0-.4-.15-.4-.5v-23a1.33,1.33,0,0,0-1.33-1.34H336.87a1.3,1.3,0,0,0-1.3,1.64,46.28,46.28,0,0,1,1,10.89V268a1.33,1.33,0,0,0,1.33,1.34h9.42a1.33,1.33,0,0,0,1.33-1.33h0V256.46c0-.4.42-.53.56-.15l4.4,11.82a1.78,1.78,0,0,0,1.69,1.21h10.52a1.1,1.1,0,0,0,1-1.64h0Zm-150-35.48a10.75,10.75,0,0,0-8.17,3.08.33.33,0,0,1-.57-.24v-.81a1.33,1.33,0,0,0-1.33-1.34h-9.84a1.31,1.31,0,0,0-1.3,1.65,46.19,46.19,0,0,1,1,10.89V268a1.33,1.33,0,0,0,1.33,1.34h9.42a1.33,1.33,0,0,0,1.33-1.33h0V244.05c0-1.7.91-2.68,2.36-2.68s2.19,1,2.19,2.68V268a1.33,1.33,0,0,0,1.33,1.34H224a1.33,1.33,0,0,0,1.33-1.33h0V241.32c0-5.85-3.39-9.11-8.52-9.11Zm78.08,0a11.32,11.32,0,0,0-8.15,3.28.41.41,0,0,1-.7-.07c-1.31-2.08-3.6-3.21-6.81-3.21a11.05,11.05,0,0,0-7.77,3.14.33.33,0,0,1-.57-.24v-.86a1.33,1.33,0,0,0-1.33-1.34h-9.85a1.31,1.31,0,0,0-1.3,1.65,46.22,46.22,0,0,1,1,10.88V268a1.33,1.33,0,0,0,1.33,1.34h9.42a1.33,1.33,0,0,0,1.33-1.33h0V244c0-1.58.56-2.67,2-2.67s1.75,1.09,1.75,2.68V268a1.33,1.33,0,0,0,1.33,1.34H286a1.33,1.33,0,0,0,1.33-1.33h0V244c0-1.54.58-2.61,2-2.61s1.75,1.09,1.75,2.68V268a1.33,1.33,0,0,0,1.33,1.34h9.42A1.33,1.33,0,0,0,303.2,268h0V241.33c0-5.64-2.89-9.1-8.3-9.1h0Zm-51.38,0c-4.26,0-9.22.92-13.18,4.18a1.8,1.8,0,0,0-.65,1.38V246a1.12,1.12,0,0,0,1.88.86c4-3.41,7.84-5.4,10.64-5.4,1.5,0,2.41.41,2.41,1.58,0,1.85-2.62,2.6-7.47,4.79-4.63,2.09-9.71,5.18-9.71,12.21,0,6.37,4,9.93,9.15,9.93,4.13,0,6.33-1.45,7.95-3.31a.33.33,0,0,1,.58.22V268a1.33,1.33,0,0,0,1.33,1.34h8.64a1.33,1.33,0,0,0,1.33-1.33h0v-23.5c0-8.42-4.14-12.27-12.92-12.27Zm1.38,24.87c0,2.57-1.28,4-3,4a2.41,2.41,0,0,1-2.45-2.63c0-2.82,2.81-4.41,5.05-6.33a.27.27,0,0,1,.44.2Zm115.17-29.71a3.39,3.39,0,1,1,3.41-3.39A3.28,3.28,0,0,1,360.08,227.38Zm0-6.16a2.77,2.77,0,1,0,2.7,2.77A2.6,2.6,0,0,0,360.08,221.22Z" transform="translate(-145.03 -220.12)" style="fill:#0213b0"/><path d="M361,224.57a0,0,0,0,1,0,0,1.23,1.23,0,0,0,.69-1.17,1.29,1.29,0,0,0-1.47-1.34h-1.49c-.08,0-.1.05-.08.11a1.54,1.54,0,0,1,.11.7v2.87a.09.09,0,0,0,.09.09h.73a.09.09,0,0,0,.09-.09h0v-1a0,0,0,0,1,0,0h.31l0,0,.49,1a.11.11,0,0,0,.09.06h.91a.08.08,0,0,0,.07-.13l-.64-1.09h0Zm-.86-.57h-.43a0,0,0,0,1,0,0V222.8a0,0,0,0,1,0,0h.43a.57.57,0,0,1,.64.61.58.58,0,0,1-.64.63Z" transform="translate(-145.03 -220.12)" style="fill:#0213b0"/></svg>