<svg id="Layer_1" data-name="Layer 1" xmlns="http://www.w3.org/2000/svg" viewBox="0 0 319.37 330.07"><title>Nestle logo - Brandlogos.net</title><g id="Visual"><path d="M419.42,361c-11.27,11.72-10.25,18.48-22.13,23A85.69,85.69,0,0,1,386,387.49c-2.75-8.5-9.68-16.94-17-16.94-5.07,0-10.94,2.64-17.69,5.63a151.09,151.09,0,0,0-17.51,9l3.1,4.16c2.36-1.3,9.18-4.68,16-7.6,5.92-2.53,11.27-4.62,14.86-4.62,5.81,0,9.58,6.6,11.67,11.88-7.6,1.81-20.11,2.25-23.88,2.25-1.75,0-2.37.29-3,.8a5,5,0,0,0-1.3,2.64l-.45,1.92h4.05c21.05,0,41-3.32,53.73-11.1a19,19,0,0,0,5.41.84c7.31,0,14.88-4,19.6-7.65a4.38,4.38,0,0,0,2.09-3.77,16.37,16.37,0,0,0-.12-1.76l-.22-2.2c-6.76,5.35-12.38,9.35-19.37,9.35a9.61,9.61,0,0,1-2.87-.34c6.82-10.93,12.9-20.62,27.83-28.5-1.58-1-3.83-2.42-5-3.21C430.07,350.82,424.32,355.89,419.42,361Z" transform="translate(-224.32 -218.96)" style="fill:#63513d"/><path d="M396.16,364.28c-4.79,0-4.34-8.17-4.68-14.64-16.89,1.63-27.48,6.65-39.1,12.89l1.36,5.18c10.53-6.31,20.67-9.91,31.42-11,.12,6.19,2.76,14.48,9.81,14.48,7.54,0,16.71-11.83,27.48-25.69l2.82-3.66c-1.47-1.13-3.09-2.15-4.11-3.09C410.13,353,400.56,364.28,396.16,364.28Z" transform="translate(-224.32 -218.96)" style="fill:#63513d"/><path d="M366.65,276.3a35.27,35.27,0,0,1-7.21,1.07,24.41,24.41,0,0,1-5.52-.73,23,23,0,0,0-5.85-.74,18.46,18.46,0,0,0-12.51,4.84c-6,5.69-6.31,11.82-6.71,17.28-.5,7.27-1.86,9.08-5.79,14.37a152.35,152.35,0,0,0-11,16.06c1.08.5,4.62,2.41,5.86,3.09,3.88-5.85,9.29-13.06,12.83-18.53,3.21-4.95,4.51-7.09,4.73-13.74.06-1.13.06-2.2.17-3.27a15,15,0,0,1,4.46-10.14,13.26,13.26,0,0,1,9.41-3.66c3.37,0,5.35,1,8.27,1a13.33,13.33,0,0,0,4.95-1l1.08-.4-2.59,6.2,6.08,2.47c-3.88,2.41-12.39,12.83-12.39,25.18a48.2,48.2,0,0,0,1.64,12.21.92.92,0,0,0,.95.79,1,1,0,0,0,1-.95l.06-1.3c.18-3.77.45-9.74,2-15.09,2.53-9,9.35-17.46,16.18-21.52L367,285.52l4.16-10.2Z" transform="translate(-224.32 -218.96)" style="fill:#63513d"/><path d="M395.93,235.25c-3.66,0-4.67,3.54-4.67,5.52,0,1.58.56,3.44,2.53,3.44,1.63,0,3.65-1.18,5.23-2.48s2.53-2.25,2.53-3.26-.9-1.86-2.26-2.47A7.8,7.8,0,0,0,395.93,235.25Z" transform="translate(-224.32 -218.96)" style="fill:#63513d"/><polygon points="149.2 87.81 146.5 93 175.28 93 173.14 87.81 149.2 87.81" style="fill:#63513d"/><path d="M340.23,259c1.52-.91,2.81-2.2,2.81-3.55a2.41,2.41,0,0,0-.9-1.81,5.7,5.7,0,0,0-3.77-1.52c-2.82,0-4.28,2.64-4.28,5.07,0,1.86.91,2.92,2.64,2.92A7.4,7.4,0,0,0,340.23,259Z" transform="translate(-224.32 -218.96)" style="fill:#63513d"/><path d="M507.63,362.38l2.75,1.92a1.78,1.78,0,0,0,1,.45,1,1,0,0,0,1-1,1.1,1.1,0,0,0-.45-.85c-8.23-7.49-17.07-16.61-25.36-25.41-6.48-6.93-13.12-14.24-19-21.62a1.48,1.48,0,0,0-1.19-.74.93.93,0,0,0-1,1c0,.79.56,1.74,2,4.11a117.24,117.24,0,0,0,16.11,21.45A161.41,161.41,0,0,0,507.63,362.38Z" transform="translate(-224.32 -218.96)" style="fill:#63513d"/><path d="M472.21,464.15H465.5a4.58,4.58,0,0,0-3.77,1.64,5.16,5.16,0,0,0-1.13,3.38v73.72a5.18,5.18,0,0,0,1.13,3.38,4.58,4.58,0,0,0,3.77,1.64h6.71a4.58,4.58,0,0,0,3.77-1.64,5.16,5.16,0,0,0,1.13-3.38V469.17a5.18,5.18,0,0,0-1.13-3.38A4.58,4.58,0,0,0,472.21,464.15Z" transform="translate(-224.32 -218.96)" style="fill:#63513d"/><path d="M355.78,290.16a2.37,2.37,0,0,0-1.18-2,5.57,5.57,0,0,0-3.2-1,3.64,3.64,0,0,0-3.78,2.87,6.19,6.19,0,0,0-.27,1.92c0,2,.9,3.43,2.36,3.43C351.72,295.4,355.78,292.59,355.78,290.16Z" transform="translate(-224.32 -218.96)" style="fill:#63513d"/><path d="M277.87,359.33l.41,2.41a2.76,2.76,0,0,0,1.4,2.26c1,.51,2.48.57,5,.57a58.08,58.08,0,0,0,13.8-1.47c6.93,10.3,16.44,14.25,25.63,14.25,7.83,0,15.77-2.87,23.37-7l-1.42-5.13c-7.42,4.18-15.14,6.94-22,6.94-7.6,0-14.37-3.27-20-11.77-2.36-3.59-4.22-8.1-6.49-12.1-2.7-4.73-5.63-7.26-10.75-7.26-4.68,0-9.24,1.93-14.08,4L273,346c.39,1.75,1.08,3,2.71,3a6.46,6.46,0,0,0,1.86-.45c2.7-.85,4.67-1.58,7.43-1.58,4.22,0,6.25,2.47,9.12,8.56l1.08,2.26c-2.93,1-9.8,1.52-14.92,1.52Z" transform="translate(-224.32 -218.96)" style="fill:#63513d"/><path d="M513.26,485.38c-19.55,0-30.53,15.27-30.53,31.37,0,17.18,11.77,32.28,30.63,32.28,9.42,0,18.65-3.55,23.95-9.8,2.31-2.71,4.17-6.49,4.17-8.79a2.84,2.84,0,0,0-.62-2,2.67,2.67,0,0,0-2.31-.91h-9.06a4.35,4.35,0,0,0-4,2c-2.64,3.88-6.47,5.92-12.1,5.92a14.07,14.07,0,0,1-14.31-13.47h39.32a5.14,5.14,0,0,0,3.83-1.24c1-.9,1.41-2.2,1.41-4.61a32.92,32.92,0,0,0-7.15-20.9C531.56,489.38,523.91,485.38,513.26,485.38Zm-14,24.67c.74-6.93,6-12.1,14.08-12.1s13.35,5.18,14.09,12.1Z" transform="translate(-224.32 -218.96)" style="fill:#63513d"/><path d="M490.23,248.71h.91c0,.39-.06.85-.06,1.24,0,6.37,3.27,11.1,11.33,11.1,4.95,0,12.73-2.48,20-5,6.08-2.09,11.66-4.22,14.42-5v-6.77c-3.15,1-9.57,3.43-16.22,5.74-7,2.42-13.86,4.63-17.86,4.63-4.39,0-5.63-2.42-5.63-5.87,0-7.09,4.45-17.28,7.26-23.09h-6.82c-3.54,6.88-17.51,28.9-25.06,38l4.33,4.68C480.93,263.92,485.38,256.25,490.23,248.71Z" transform="translate(-224.32 -218.96)" style="fill:#63513d"/><path d="M442.51,248.6c-5.69-5.47-10-11.67-12.78-14.65-6.15-6.71-14.08-15-27.14-15-12.62,0-21,8.22-23.66,15.33-.8,2-1.41,4.5-2,5.41-1.24,2-6.82,11.55-9.12,15.32h10.42l-5.07,9.58c5.91-1.31,10.13-2.27,15.77-2.27,5,0,8.62,1.19,10.2,4.34,2.93,5.86,2.93,23.59,7.88,37,4.61,12.56,15.89,24.85,28.56,34.24l.56.18a1,1,0,0,0,1-.91,1.1,1.1,0,0,0-.39-.85c-10.6-10.59-19.21-22.3-23.82-35.14-4.56-12.5-3.83-30.08-7.83-37.91-2.64-5.18-8.27-6.54-13.46-6.54a47.13,47.13,0,0,0-9.86,1.24l4.57-7.72h-7.72c1.63-2.87,3.33-5.52,4.17-7.09.73-1.36,1-3,1.92-5.35a18.54,18.54,0,0,1,17.86-12.06c10.59,0,16.78,6.82,22.93,13.64,2.81,3.14,7.44,9.74,12.78,14.64,3.66,3.38,10.64,7.14,21.39,18.25a193.57,193.57,0,0,1,21,25.91c27.2,39.82,45.06,74.91,55,102.28l-.17.11c-28.56-19.38-53.28-37.68-73.22-60.26-14.14-16.06-26.41-34.64-37.12-58.37-.73-1.57-1.36-3-2-4.55-.27-.62-.56-.79-1-.79a.92.92,0,0,0-1,.95,32.46,32.46,0,0,0,.9,4.67c5.7,24.56,21.46,46.58,38.31,64.89s35.77,33.86,51.37,45.22L524,427.12a8.68,8.68,0,0,1,.61,2.59,1.85,1.85,0,0,1-.55,1.47,2.33,2.33,0,0,1-1.81.51h-3.66a3.87,3.87,0,0,1-2.75-.68,4.06,4.06,0,0,1-1.24-1.92c-1.07-3.26-7.5-21.57-8.73-25.29a1.08,1.08,0,0,0-1.07-.9.94.94,0,0,0-.95,1,25,25,0,0,0,.45,2.53c1.63,8.33,3.54,17.69,4.33,21.23a24.47,24.47,0,0,1,.74,4.29,2.93,2.93,0,0,1-1.07,2.41l-3.78,3.83c-.9.91-1.4,1.13-2.14,1.13-.91,0-1.64-.61-2-2.19-4.28-20-10.76-44.79-12.44-51.66-.4-1.53-.68-2.37-1.58-2.37s-1.08.57-1.08,1.25a11,11,0,0,0,.18,1.58c1,7.09,5.12,33,9.57,56.56.79,4.06,2.31,6.31,5.81,6.31a6.34,6.34,0,0,0,4.5-2c2.31-2.31,3-2.92,5.75-5.63a8,8,0,0,1,6.7-2.7h8.34a5.16,5.16,0,0,0,4-1.41,4.79,4.79,0,0,0,1.47-3.71,14,14,0,0,0-1.07-4.9c-2.14-5.74-9-25.17-11-30.63l.16-.11c7,5.35,17.29,12.16,21.8,12.16,1.4,0,2.25-.62,2.25-2.81,0-10.37-17.23-53-56.61-111.69C466.12,264.09,447.7,253.55,442.51,248.6Z" transform="translate(-224.32 -218.96)" style="fill:#63513d"/><path d="M492,287.69c7.1-2.93,13.46-4.84,19.2-4.84,8.05,0,14.65,0,25.69-2.59v-5.18c-6.2,1.13-12.78,2.47-17.06,2.47-2.53,0-3.27-.34-3.27-1.18,0-.5.34-.85,1.3-1.24,6.76-2.87,18.87-7.72,25.85-10.26V258c-14,5.18-38.64,15.37-55.42,24.5C488.7,283.06,491.63,287.18,492,287.69Z" transform="translate(-224.32 -218.96)" style="fill:#63513d"/><path d="M299.51,286.78c-7.93,9.4-12.1,17-19,33.91a44.91,44.91,0,0,1,4.57-.23c.91,0,1.64,0,2.81.06l.84-1.81c3.89-8.34,9.13-19.6,16.45-28.27l2.53-3c7.55-8.85,12.22-14.09,15.16-26.13,1-4.28,1.86-8.11,4.73-10.87a13.06,13.06,0,0,1,9.18-3.55,18.83,18.83,0,0,1,7.94,2,13.38,13.38,0,0,0,6.71,1.41c1,0,1.74-.06,2.41-.11l-3.94,5.3,5.35,3.77c-6.71,2-10.26,8.45-11.44,11.44a4.26,4.26,0,0,0-.34,1.41.82.82,0,0,0,.9.9c.74,0,1.3-.56,2.26-1.69,3.27-4,5.87-6.65,17.91-10.42L356,254.45l6.43-9.4h-6c-3.82,0-6.36-.06-9.69-1.58-4.51-2.09-6.82-3-10.82-3a18.82,18.82,0,0,0-13,5.12c-4.22,3.89-5.53,9.08-7,14.76-1.18,4.4-2.59,9.24-5.74,13.69C307.45,277.83,305.54,279.68,299.51,286.78Z" transform="translate(-224.32 -218.96)" style="fill:#63513d"/><path d="M250.73,265.65c-13.8,0-19.66,6.65-19.66,11.1a11.64,11.64,0,0,0-6.76,10.48c0,8.39,6.14,14.37,14.25,14.37a12.73,12.73,0,0,0,7.38-2.53,15.62,15.62,0,0,0,5.06.78,13.12,13.12,0,0,0,11.28-5.8,9.41,9.41,0,0,0,1.3.06c4.95,0,9.24-3.27,11.49-7.55a5.75,5.75,0,0,0,.79-2.52c0-.62-.28-1.13-.9-1.13-.79,0-.91.74-2.32,2-3.15,2.87-8,4-13,4-2.42,3.54-5.41,5.41-8.84,5.41a11.15,11.15,0,0,1-6.54-2,7.44,7.44,0,0,1-5.63,2.53,7.28,7.28,0,0,1-7.6-7.61,7.62,7.62,0,0,1,4.84-7c.5-5.58,6.47-9.35,13.91-9.35a24.81,24.81,0,0,1,2.93.17c1.13-1.8,3.83-3.71,7.66-4.22a6.79,6.79,0,0,0,1.86-.39,1.36,1.36,0,0,0,.06-2.31,7.2,7.2,0,0,0-1.86-.5,13,13,0,0,1-9.92-8.22,14.6,14.6,0,0,1-14.75-14.48v-.52a7.6,7.6,0,0,1,2.81-14.64,7.71,7.71,0,0,1,6.15,3.09,14.13,14.13,0,0,1,3.82-.45c6.31,0,13.07,4,14.36,11.77,8.11.74,10,7.6,10.55,10.48.27,1.47.5,2.7,1.47,2.7s1.24-1.13,1.58-2.64a11.71,11.71,0,0,1,3.83-7c0-7.37,5.52-13.74,13.35-13.74a7.59,7.59,0,1,1,11.43,9.29,15.44,15.44,0,0,1,.67,4c0,4.74-2.81,8.05-8,9.8a14.51,14.51,0,0,1-3.94,7.38c-3.38,3.27-6.82,3.27-6.82,4.62,0,.73.5,1.19,1.92,1.19,6.26,0,12.39-3.5,13.12-9.3A14.45,14.45,0,0,0,311.7,244a7.14,7.14,0,0,0-.62-3.32,11.25,11.25,0,0,0,3.55-8.27A13.81,13.81,0,0,0,289.42,225c-6.14,0-14.07,6.82-14.07,16.56h-.85c-.56-3.38-4.06-5.63-7-5.81-2.37-7.09-7.72-13.17-16.51-13.17a23.92,23.92,0,0,0-3.32.22,13.26,13.26,0,0,0-9.46-3.83,13.86,13.86,0,0,0-13.91,13.91c0,4.85,2.2,8.16,6.37,11.11l-.06.91c0,6.19,6.76,15.88,16.78,15.88,0,1.58,2,3.72,4.17,4.11v.79h-.85Z" transform="translate(-224.32 -218.96)" style="fill:#63513d"/><path d="M402.25,511.91l-12.78-3.27c-5.3-1.35-7.77-2.32-7.77-5.57s2.82-5.7,9.35-5.7c3.83,0,7.32.85,9.58,3.21,1.86,2,1.52,3,3,3.77a7.76,7.76,0,0,0,3.49.45h6.37a2.82,2.82,0,0,0,2.31-.79,3.71,3.71,0,0,0,.73-2.59c0-2.93-1.91-6.71-5.29-9.58-4.51-3.88-11.61-6.47-20.17-6.47-15.43,0-25.57,7.32-25.57,19a14.47,14.47,0,0,0,4,10.19c2.87,3.1,7,5.25,13,6.77l12.9,3.25c3.54.91,6.71,2,6.71,5.07,0,4.79-5.07,6.42-10.49,6.42a17.46,17.46,0,0,1-7.65-1.63A9.56,9.56,0,0,1,380,531c-.84-1.3-1.13-2.26-2.41-3a6,6,0,0,0-3-.51h-7a3.18,3.18,0,0,0-2.75,1.07,3.82,3.82,0,0,0-.68,2.42,13.28,13.28,0,0,0,2.64,7.6C371,544.38,380,549,391.43,549c11.27,0,26.86-4.68,26.86-19.78a15.9,15.9,0,0,0-3.2-9.92C412.43,515.91,408.66,513.55,402.25,511.91Z" transform="translate(-224.32 -218.96)" style="fill:#63513d"/><path d="M273.6,266.44a142.55,142.55,0,0,1,12.73,23.89,52.29,52.29,0,0,1,4.39-5.92c-4.34-8.79-11.44-17.18-14.54-20.5Z" transform="translate(-224.32 -218.96)" style="fill:#63513d"/><path d="M412.77,330.71c-3.37,1.47-11.15,4.27-18.86,4.27a78.61,78.61,0,0,1-10.6-.79,101.87,101.87,0,0,0-12.1-1.07c-5.92,0-13.24.57-20.34,5.58l3.1,4.06c4.84-2.31,12.67-3.43,16.55-3.43a81.63,81.63,0,0,1,10.59.84,97.64,97.64,0,0,0,13,1.07c10.6,0,21-5.63,22.59-6.65A36.66,36.66,0,0,1,412.77,330.71Z" transform="translate(-224.32 -218.96)" style="fill:#63513d"/><path d="M344.06,338.44l-3.26-4.23c-12.62,4.85-26.64,12.67-26.64,20.68,0,4.56,3.38,8.16,11,8.16,11.16,0,23-5.63,32.57-10.87l-1.36-1.86a2.74,2.74,0,0,0-2.53-1.47,5,5,0,0,0-2,.56c-8.16,4-17,8-25.24,8-4.74,0-5.92-1.46-5.92-3.5C320.63,348.18,336.29,341.52,344.06,338.44Z" transform="translate(-224.32 -218.96)" style="fill:#63513d"/><path d="M452.48,487.53H442.29V469.17a5.23,5.23,0,0,0-1.13-3.38,4.62,4.62,0,0,0-3.77-1.63H431a4.62,4.62,0,0,0-3.77,1.63,5.23,5.23,0,0,0-1.13,3.38v18.36H423a4.21,4.21,0,0,0-2.76.9,3.65,3.65,0,0,0-1.07,2.92v3.88a3.61,3.61,0,0,0,1.07,2.92,4.14,4.14,0,0,0,2.76.91h3.15v28.1c0,7.2,2,11.71,5.64,15.32,3.37,3.32,7.77,5.41,15.43,5.41H452a4.13,4.13,0,0,0,2.75-.91,3.67,3.67,0,0,0,1.18-2.92v-4.9a3.71,3.71,0,0,0-1.18-2.92,4.13,4.13,0,0,0-2.75-.91h-.68c-3,0-5.13-.79-6.55-2.15-1.69-1.58-2.53-4-2.53-7.15v-27h10.26a4.12,4.12,0,0,0,2.75-.91,3.63,3.63,0,0,0,1.07-2.92v-3.88a3.65,3.65,0,0,0-1.07-2.92A4.18,4.18,0,0,0,452.48,487.53Z" transform="translate(-224.32 -218.96)" style="fill:#63513d"/><path d="M538.11,476.76a4.13,4.13,0,0,0,2.75-.91,3.63,3.63,0,0,0,1.07-2.92v-5.24c0-2-.39-3.05-1.07-3.78a3.74,3.74,0,0,0-2.75-1.06,33.06,33.06,0,0,0-3.32.27l-45,4.45a3.24,3.24,0,0,0-2.36,1,3.19,3.19,0,0,0-.73,2.31v2.93a2.78,2.78,0,0,0,.62,2.09,2.84,2.84,0,0,0,2.25.84h48.51Z" transform="translate(-224.32 -218.96)" style="fill:#63513d"/><path d="M282.84,422.52a25.67,25.67,0,0,1-12.56,3.22c-1.75,0-2.53.34-3.15,1a4.16,4.16,0,0,0-1,3.09v2h1.41c7.54,0,14.53-1.18,22.19-7.2l24.95-19.5c3.55,4.06,12.5,9.69,23.09,9.69,6,0,9.8-1.46,15.32-2.86a62.27,62.27,0,0,1,17.57-2H397c13.52,0,20.06-2.81,27.26-6.87,15.67-8.79,29-23.66,36.56-40.72-2-1.25-3.83-2.37-5.41-3.44-8.45,17.8-21.29,30.76-34.48,38.25-6.25,3.55-11.88,5.86-24,5.86h-26.3a75,75,0,0,0-19.93,2.41c-5,1.3-8.12,2.59-13.12,2.59-7.43,0-14.32-3.66-17.64-7.15l6.21-4.9-3.09-4.11c-1.81,1.3-23.83,17.57-28.45,21.23l-.27-.17a31.24,31.24,0,0,0,.11-3.14c0-12.39-5.75-15.38-14.48-18.87l-5.92,3.5c12,4,15,7.2,15,16.17C289,417.57,286.5,420.38,282.84,422.52Z" transform="translate(-224.32 -218.96)" style="fill:#63513d"/><path d="M226.57,413.91c4.22,0,4.72-2.53,4.72-5,0-1.63,0-3.49,0-5.52,0-4.67.23-8.84,7.77-12.22,3-1.35,18-7.43,29.07-12.16,3.27-1.41,6.31-2.58,9.69-2.58,3.77,0,8.11,1.63,13.51,4.85a56.7,56.7,0,0,1,13.13,10.59l4.78-3.66a62.52,62.52,0,0,0-15.49-12.55c-5.69-3.37-10.76-5.36-15-5.36A17.82,17.82,0,0,0,274,371a17.55,17.55,0,0,1-4.74.85c-2.08,0-3.83-.5-6.37-3.43-.95-1.07-7-8-8.33-10a9.69,9.69,0,0,1-1.75-5.13,6.41,6.41,0,0,1,.73-3.09c5.24,4.06,11.72,6.54,19.61,7.49l-1.08-5.35c-11.32-3-23.38-13-23.38-19.38a8.37,8.37,0,0,1,.84-3.5c4.39,4.06,14.71,8.29,20.28,8.29a20.25,20.25,0,0,0,7.88-2,19.17,19.17,0,0,1,7.54-1.79c7.21,0,16.11,3.48,23.94,6.81a4.26,4.26,0,0,0,1.46.29,3,3,0,0,0,2.82-1.76l1-1.86c-8.61-5-22.36-10.37-29.53-10.37a20,20,0,0,0-7.88,1.75c-2.53,1-4.73,2.08-7,2.08-5.69,0-20.28-5.63-20.28-11.1,0-6.43,23.2-8.9,25.74-8.9l2.31-5.24c-16.83,0-36.89,5.91-36.89,13.74,0,2.26,1.3,3.37,1.3,5.46,0,2.82-1.3,4.74-1.3,7.88,0,2.09,1.25,4.73,2.7,7s3.44,4,3.44,6c0,1.52-1,3.31-1,6.87,0,7.6,4.34,12.22,12.78,21.28l1.69,1.81c-7,2.7-20,8.33-23,9.63-10.49,4.38-13.13,9.74-13.13,18.19,0,3.26,0,7,.22,10.3h2Z" transform="translate(-224.32 -218.96)" style="fill:#63513d"/><path d="M297.54,238.45a.94.94,0,0,0-.95-.9c-.52,0-.79.34-1.3.74a58.58,58.58,0,0,0-6.08,6A44.14,44.14,0,0,0,282,256.48l3,1.86c2.09-3.1,8.79-13.69,12.22-19A1.73,1.73,0,0,0,297.54,238.45Z" transform="translate(-224.32 -218.96)" style="fill:#63513d"/><path d="M414.86,475.86a3.67,3.67,0,0,0,1.07-2.92v-5a3.67,3.67,0,0,0-1.07-2.92,4.13,4.13,0,0,0-2.75-.9H283.68a5.41,5.41,0,0,0-4.45,1.86,5.55,5.55,0,0,0-1.24,3.88V521h-.29s-28-49.9-29.35-52.21a9.6,9.6,0,0,0-3.43-3.61,10.45,10.45,0,0,0-5.69-1.3H230a5.41,5.41,0,0,0-4.45,1.86,5.56,5.56,0,0,0-1.24,3.89v72.48a5.56,5.56,0,0,0,1.24,3.89A5.41,5.41,0,0,0,230,547.9h5.24a5.41,5.41,0,0,0,4.45-1.86,5.56,5.56,0,0,0,1.24-3.89V489.78h.29s29.07,51.48,30.25,53.4a9.43,9.43,0,0,0,8.34,4.73h9a5.4,5.4,0,0,0,4.44-1.86,5.51,5.51,0,0,0,1.24-3.89V476.77H412.11A4.23,4.23,0,0,0,414.86,475.86Z" transform="translate(-224.32 -218.96)" style="fill:#63513d"/><path d="M330.6,485.38c-19.55,0-30.53,15.27-30.53,31.37,0,17.18,11.77,32.28,30.63,32.28,9.41,0,18.64-3.55,23.94-9.8,2.32-2.71,4.18-6.49,4.18-8.79a2.84,2.84,0,0,0-.62-2,2.67,2.67,0,0,0-2.31-.91h-9.07a4.33,4.33,0,0,0-3.94,2c-2.64,3.88-6.49,5.92-12.11,5.92a14.06,14.06,0,0,1-14.3-13.47h39.21a5.1,5.1,0,0,0,3.82-1.24c1-.9,1.42-2.2,1.42-4.61a32.92,32.92,0,0,0-7.15-20.9C348.8,489.38,341.24,485.38,330.6,485.38Zm-14,24.67c.74-6.93,6-12.1,14.08-12.1,7.89,0,13.35,5.18,14.08,12.1Z" transform="translate(-224.32 -218.96)" style="fill:#63513d"/><path d="M244.42,284a.88.88,0,0,0,.9.9,4.34,4.34,0,0,0,1.47-.45l20.61-7-1-3.38c-8.39,1.41-14.48,3.55-21.4,9C244.58,283.41,244.42,283.63,244.42,284Z" transform="translate(-224.32 -218.96)" style="fill:#63513d"/><path d="M256.93,243.81a46.18,46.18,0,0,0-10.87-6.1l-.73-.17a.84.84,0,0,0-.9.85c0,.34.11.62.62,1.07,4.9,4.16,14.37,12.11,17.29,14.53l2.35-2.7A51.57,51.57,0,0,0,256.93,243.81Z" transform="translate(-224.32 -218.96)" style="fill:#63513d"/></g></svg>